<svg width="16" height="15" viewBox="0 0 16 15" fill="none" xmlns="http://www.w3.org/2000/svg">
<path id="Vector" d="M1.54704 1.31328e-06H13.9233C14.3488 1.31328e-06 14.7131 0.151611 15.0163 0.454831C15.3196 0.75805 15.4709 1.12212 15.4704 1.54704V10.0558C15.4704 10.4812 15.3188 10.8455 15.0156 11.1487C14.7123 11.452 14.3483 11.6033 13.9233 11.6028H10.8293V14.2134C10.8293 14.5099 10.7068 14.7325 10.4619 14.881C10.2169 15.0295 9.96551 15.039 9.70767 14.9096L8.08328 14.0974C7.98014 14.0329 7.86411 14.0007 7.73519 14.0007C7.60628 14.0007 7.49025 14.0329 7.38711 14.0974L5.76272 14.9096C5.50488 15.0385 5.25349 15.029 5.00854 14.881C4.76359 14.733 4.64112 14.5105 4.64112 14.2134V11.6028H1.54704C1.1216 11.6028 0.757277 11.4512 0.454057 11.148C0.150837 10.8447 -0.000514366 10.4807 1.31328e-06 10.0558V1.54704C1.31328e-06 1.1216 0.151611 0.757277 0.454831 0.454057C0.75805 0.150837 1.12212 -0.000514366 1.54704 1.31328e-06ZM1.54704 8.50871H13.9233V6.18816H1.54704V8.50871Z" fill="#1E7FCB"/>
</svg>
