<svg width="13" height="15" viewBox="0 0 13 15" fill="none" xmlns="http://www.w3.org/2000/svg">
<path id="Vector" d="M6.42857 0C8.13353 0 9.76867 0.677294 10.9743 1.88289C12.1798 3.08848 12.8571 4.72361 12.8571 6.42857C12.8571 9.09 10.8286 11.8786 6.85714 14.8571C6.7335 14.9499 6.58312 15 6.42857 15C6.27402 15 6.12364 14.9499 6 14.8571C2.02857 11.8786 0 9.09 0 6.42857C0 4.72361 0.677294 3.08848 1.88288 1.88289C3.08848 0.677294 4.72361 0 6.42857 0ZM6.42857 4.28571C5.86025 4.28571 5.31521 4.51148 4.91334 4.91334C4.51148 5.31521 4.28571 5.86025 4.28571 6.42857C4.28571 6.99689 4.51148 7.54194 4.91334 7.9438C5.31521 8.34566 5.86025 8.57143 6.42857 8.57143C6.99689 8.57143 7.54194 8.34566 7.9438 7.9438C8.34566 7.54194 8.57143 6.99689 8.57143 6.42857C8.57143 5.86025 8.34566 5.31521 7.9438 4.91334C7.54194 4.51148 6.99689 4.28571 6.42857 4.28571Z" fill="#1E7FCB"/>
</svg>
