<svg width="5" height="5" viewBox="0 0 5 5" fill="none" xmlns="http://www.w3.org/2000/svg">
<path fill-rule="evenodd" clip-rule="evenodd" d="M4.90522 0.551941C4.93524 0.521955 4.95907 0.486349 4.97533 0.447156C4.99159 0.407964 4.99997 0.365951 5 0.323518C5.00003 0.281086 4.99169 0.239063 4.97548 0.19985C4.95927 0.160637 4.93549 0.125002 4.9055 0.094979C4.87552 0.0649559 4.83991 0.0411332 4.80072 0.0248708C4.76153 0.0086083 4.71951 0.000224692 4.67708 0.000198611C4.63465 0.000172531 4.59263 0.00850448 4.55342 0.0247187C4.5142 0.040933 4.47857 0.064712 4.44855 0.0946981L2.49996 2.04332L0.551932 0.0946981C0.491299 0.0340639 0.409063 -6.38886e-10 0.323314 0C0.237566 6.38885e-10 0.15533 0.0340639 0.0946966 0.0946981C0.0340633 0.155332 6.38875e-10 0.23757 0 0.32332C-6.38875e-10 0.40907 0.0340633 0.491307 0.0946966 0.551941L2.04328 2.5L0.0946966 4.44806C0.064674 4.47808 0.0408589 4.51372 0.0246108 4.55295C0.00836273 4.59218 0 4.63422 0 4.67668C0 4.71914 0.00836273 4.76118 0.0246108 4.80041C0.0408589 4.83964 0.064674 4.87528 0.0946966 4.9053C0.15533 4.96594 0.237566 5 0.323314 5C0.365773 5 0.407815 4.99164 0.447042 4.97539C0.486268 4.95914 0.52191 4.93532 0.551932 4.9053L2.49996 2.95668L4.44855 4.9053C4.50918 4.96586 4.59139 4.99985 4.67708 4.9998C4.76278 4.99975 4.84494 4.96565 4.9055 4.90502C4.96606 4.84439 5.00005 4.76218 5 4.67648C4.99995 4.59078 4.96585 4.50862 4.90522 4.44806L2.95663 2.5L4.90522 0.551941Z" fill="#1E7FCB"/>
</svg>
