<svg width="15" height="20" viewBox="0 0 15 20" fill="none" xmlns="http://www.w3.org/2000/svg">
<path fill-rule="evenodd" clip-rule="evenodd" d="M1.40415 0.685624C1.40415 0.503785 1.33018 0.329394 1.19852 0.200814C1.06685 0.0722351 0.888275 0 0.702074 0C0.515872 0 0.337297 0.0722351 0.205633 0.200814C0.0739681 0.329394 5.54924e-09 0.503785 0 0.685624V19.3144C-2.7477e-09 19.4044 0.0181595 19.4936 0.0534421 19.5768C0.0887246 19.6599 0.140439 19.7355 0.205633 19.7992C0.270826 19.8629 0.348222 19.9134 0.433402 19.9478C0.518581 19.9823 0.609876 20 0.702074 20C0.794272 20 0.885566 19.9823 0.970746 19.9478C1.05593 19.9134 1.13332 19.8629 1.19852 19.7992C1.26371 19.7355 1.31542 19.6599 1.35071 19.5768C1.38599 19.4936 1.40415 19.4044 1.40415 19.3144V11.6607C1.70345 11.7184 1.96581 11.7942 2.23186 11.8707C2.81495 12.0388 3.41134 12.2099 4.44006 12.2099C5.49613 12.2099 6.61575 11.8606 7.72651 11.5134C8.81805 11.1728 9.90146 10.835 10.9043 10.835C12.2774 10.835 13.7688 11.3287 14.612 11.6989C14.7901 11.7768 15 11.6527 15 11.4615V2.55774C15.0004 2.45626 14.971 2.35679 14.9154 2.27109C14.8597 2.1854 14.7801 2.11707 14.6859 2.07419C11.5103 0.652425 9.69749 1.23051 7.82554 1.82881C7.47672 1.93923 7.12568 2.05182 6.76356 2.15141C5.29142 2.55774 3.98039 2.74899 2.34641 2.2871C2.04001 2.17581 1.7249 2.08892 1.40415 2.02728V0.685624Z" fill="#777777"/>
</svg>
