<svg width="14" height="16" viewBox="0 0 14 16" fill="none" xmlns="http://www.w3.org/2000/svg">
<path d="M6.92857 0.5C8.63353 0.5 10.2687 1.17729 11.4743 2.38289C12.6798 3.58848 13.3571 5.22361 13.3571 6.92857C13.3571 9.59 11.3286 12.3786 7.35714 15.3571C7.2335 15.4499 7.08312 15.5 6.92857 15.5C6.77402 15.5 6.62364 15.4499 6.5 15.3571C2.52857 12.3786 0.5 9.59 0.5 6.92857C0.5 5.22361 1.17729 3.58848 2.38288 2.38289C3.58848 1.17729 5.22361 0.5 6.92857 0.5ZM6.92857 1.92857C5.60249 1.92857 4.33072 2.45536 3.39304 3.39304C2.45536 4.33072 1.92857 5.60249 1.92857 6.92857C1.92857 8.86429 3.44143 11.0971 6.53429 13.5757L6.92857 13.8871L7.32286 13.5757C10.4157 11.0971 11.9286 8.86429 11.9286 6.92857C11.9286 5.60249 11.4018 4.33072 10.4641 3.39304C9.52642 2.45536 8.25465 1.92857 6.92857 1.92857ZM6.92857 5.5C7.30745 5.5 7.67081 5.65051 7.93872 5.91842C8.20663 6.18633 8.35714 6.54969 8.35714 6.92857C8.35714 7.30745 8.20663 7.67081 7.93872 7.93872C7.67081 8.20663 7.30745 8.35714 6.92857 8.35714C6.54969 8.35714 6.18633 8.20663 5.91842 7.93872C5.65051 7.67081 5.5 7.30745 5.5 6.92857C5.5 6.54969 5.65051 6.18633 5.91842 5.91842C6.18633 5.65051 6.54969 5.5 6.92857 5.5Z" fill="#777777"/>
</svg>
