<svg width="21" height="27" viewBox="0 0 21 27" fill="none" xmlns="http://www.w3.org/2000/svg">
<path d="M2.05379 7.68974C1.67279 5.17774 3.44679 2.91574 6.15679 2.08574C6.63796 1.93847 7.15719 1.98032 7.60856 2.20275C8.05994 2.42519 8.40944 2.81145 8.58579 3.28274L9.45479 5.60274C9.59451 5.97593 9.61956 6.38235 9.52673 6.76987C9.4339 7.1574 9.22743 7.50835 8.93379 7.77774L6.34879 10.1487C6.2213 10.2659 6.1263 10.414 6.07303 10.5787C6.01976 10.7434 6.01003 10.9191 6.04479 11.0887L6.06779 11.1927L6.13179 11.4537C6.18879 11.6737 6.27479 11.9837 6.39579 12.3537C6.63579 13.0887 7.01879 14.0767 7.58879 15.0637C8.15879 16.0507 8.82279 16.8767 9.33879 17.4517C9.60753 17.7511 9.88843 18.0394 10.1808 18.3157L10.2608 18.3897C10.3901 18.5042 10.5468 18.5833 10.7158 18.6192C10.8847 18.6552 11.0601 18.6467 11.2248 18.5947L14.5708 17.5417C14.951 17.4222 15.3582 17.419 15.7402 17.5325C16.1222 17.646 16.4615 17.871 16.7148 18.1787L18.2978 20.1007C18.9578 20.9007 18.8798 22.0767 18.1208 22.7837C16.0468 24.7167 13.1948 25.1137 11.2108 23.5177C8.77894 21.5563 6.7288 19.1642 5.16279 16.4607C3.58384 13.7591 2.52904 10.7827 2.05379 7.68974ZM8.13979 11.2197L10.2858 9.25174C10.8731 8.71297 11.286 8.01105 11.4717 7.236C11.6573 6.46096 11.6072 5.64812 11.3278 4.90174L10.4578 2.58174C10.1029 1.63387 9.3998 0.857036 8.49192 0.409601C7.58405 -0.0378337 6.53971 -0.122186 5.57179 0.173739C2.20679 1.20374 -0.495211 4.22074 0.0767889 7.98974C0.589787 11.3318 1.72871 14.547 3.43379 17.4667C5.12286 20.3821 7.33402 22.9617 9.95679 25.0767C12.9318 27.4667 16.9058 26.6517 19.4848 24.2467C20.2227 23.5589 20.6705 22.6156 20.7369 21.609C20.8032 20.6024 20.4831 19.6084 19.8418 18.8297L18.2588 16.9077C17.7522 16.2922 17.0733 15.842 16.3091 15.615C15.5449 15.388 14.7303 15.3945 13.9698 15.6337L11.1928 16.5077C11.0685 16.3799 10.9468 16.2495 10.8278 16.1167C10.2571 15.4853 9.75213 14.7975 9.32079 14.0637C8.90088 13.3232 8.55744 12.5418 8.29579 11.7317C8.2403 11.5622 8.18829 11.3915 8.13979 11.2197Z" fill="white"/>
</svg>
